<svg width="100" height="26" viewBox="0 0 100 26" fill="none" xmlns="http://www.w3.org/2000/svg">
<path d="M12.3499 9.29825H13.1945C14.8232 9.29825 16.3856 8.66483 17.5378 7.53746L22.0041 2.46143H19.4019C18.7271 2.46143 18.0856 2.74614 17.6413 3.24104L14.0782 7.21167V0.5H11.6009V7.36166L7.90306 3.24295C7.4578 2.74709 6.81626 2.46239 6.1425 2.46239H3.54218L8.00559 7.53841C9.15782 8.66578 10.7202 9.29921 12.3489 9.29921L12.3499 9.29825Z" fill="white"/>
<path d="M13.1965 16.6998H12.3518C10.7231 16.6998 9.16075 17.3333 8.00852 18.4606L3.54218 23.5367H6.14445C6.81919 23.5367 7.46073 23.2519 7.90501 22.7571L11.4681 18.7864V25.5H13.9454V18.6383L17.6423 22.758C18.0876 23.2539 18.7291 23.5376 19.4029 23.5376H22.0032L17.5398 18.4616C16.3875 17.3342 14.8252 16.7008 13.1965 16.7008V16.6998Z" fill="white"/>
<path d="M2.00565 19.4866V22.0308L7.19359 17.6637C8.34582 16.5363 8.99321 15.0077 8.99321 13.4141V12.5877C8.99321 10.9941 8.34582 9.46545 7.19359 8.33808L2.00565 3.96713V6.51327C2.00565 7.17345 2.29664 7.80114 2.80342 8.23585L6.8616 11.7221H0V14.1459H7.01295L2.80245 17.7631C2.29566 18.1987 2.00468 18.8264 2.00468 19.4857L2.00565 19.4866Z" fill="white"/>
<path d="M18.5351 11.8511L22.7456 8.23394C23.2524 7.79828 23.5424 7.17058 23.5424 6.51136V3.96713L18.3545 8.33426C17.2022 9.46163 16.5548 10.9903 16.5548 12.5839V13.4103C16.5548 15.0039 17.2022 16.5325 18.3545 17.6599L23.5424 22.0299V19.4837C23.5424 18.8236 23.2514 18.1959 22.7456 17.7612L18.6874 14.2749H25.549V11.8511H18.5351Z" fill="white"/>
<path d="M38.9543 21.5526C37.4381 21.5526 36.1048 21.2186 34.9542 20.5505C33.809 19.8772 32.9138 18.9224 32.2686 17.6862C31.6234 16.4447 31.3009 14.9717 31.3009 13.2673C31.3009 11.9627 31.4944 10.7975 31.8815 9.77171C32.2686 8.74591 32.809 7.87529 33.5025 7.15986C34.1961 6.43917 35.0053 5.89208 35.93 5.51858C36.8548 5.13982 37.8575 4.95045 38.9382 4.95045C39.8522 4.95045 40.707 5.08196 41.5028 5.34498C42.3039 5.60275 43.0189 5.97099 43.648 6.44969C44.277 6.9284 44.7932 7.49653 45.1964 8.1541C45.605 8.81166 45.8712 9.53762 45.9948 10.332H42.9464C42.8227 9.90585 42.6399 9.52183 42.398 9.1799C42.156 8.83797 41.863 8.54864 41.5189 8.31192C41.1748 8.06993 40.7877 7.88844 40.3576 7.76745C39.9328 7.6412 39.4731 7.57807 38.9785 7.57807C38.086 7.57807 37.2876 7.79638 36.5833 8.23301C35.8789 8.66963 35.3225 9.31141 34.9139 10.1584C34.5106 11 34.309 12.0258 34.309 13.2358C34.309 14.4562 34.5053 15.4899 34.8977 16.3368C35.2956 17.1838 35.844 17.8282 36.5429 18.2701C37.2419 18.7067 38.051 18.925 38.9704 18.925C39.8307 18.925 40.5753 18.7593 41.2044 18.4279C41.8334 18.0965 42.3173 17.6362 42.656 17.047C43.0001 16.4578 43.1722 15.7792 43.1722 15.0112L43.7044 15.1611H39.2688V12.8728H46.1158V21.3317H43.9706L43.7528 19.4379H43.6641C43.0835 20.1165 42.4141 20.6399 41.656 21.0082C40.8979 21.3711 39.9973 21.5526 38.9543 21.5526Z" fill="white"/>
<path d="M48.663 5.17139H51.5824V17.8598C51.5824 18.3122 51.6523 18.6357 51.7921 18.8303C51.9319 19.025 52.1792 19.117 52.534 19.1065C52.7276 19.1012 52.8728 19.0907 52.9695 19.0749C53.0717 19.0539 53.1631 19.0328 53.2437 19.0118L53.7276 21.1739C53.5556 21.2265 53.3405 21.2765 53.0824 21.3238C52.8298 21.3711 52.5179 21.4001 52.1469 21.4106C50.9641 21.4422 50.0877 21.2002 49.5178 20.6846C48.9479 20.1691 48.663 19.3827 48.663 18.3253V5.17139Z" fill="white"/>
<path d="M59.5531 21.5447C58.58 21.5447 57.709 21.3001 56.9401 20.8109C56.1713 20.3217 55.5638 19.6115 55.1175 18.6804C54.6713 17.7493 54.4481 16.6183 54.4481 15.2874C54.4481 13.9407 54.6739 12.8044 55.1256 11.8785C55.5826 10.9474 56.1982 10.2452 56.9724 9.77171C57.7466 9.293 58.6095 9.05365 59.5612 9.05365C60.287 9.05365 60.8838 9.17464 61.3516 9.41662C61.8193 9.65335 62.1903 9.94004 62.4645 10.2767C62.7387 10.6081 62.9511 10.9211 63.1016 11.2157H63.2226V9.21146H66.1501V21.3317H63.279V19.4221H63.1016C62.9511 19.7167 62.7333 20.0297 62.4484 20.3611C62.1634 20.6873 61.787 20.9661 61.3193 21.1975C60.8515 21.429 60.2628 21.5447 59.5531 21.5447ZM60.3677 19.2012C60.986 19.2012 61.5128 19.0381 61.9483 18.712C62.3838 18.3805 62.7145 17.9202 62.9403 17.3311C63.1661 16.7419 63.279 16.0554 63.279 15.2716C63.279 14.4878 63.1661 13.8065 62.9403 13.2279C62.7199 12.6492 62.3919 12.1994 61.9564 11.8785C61.5263 11.5577 60.9967 11.3972 60.3677 11.3972C59.7171 11.3972 59.1741 11.5629 58.7386 11.8943C58.3031 12.2257 57.9751 12.6834 57.7547 13.2673C57.5342 13.8512 57.424 14.5193 57.424 15.2716C57.424 16.0291 57.5342 16.7051 57.7547 17.2995C57.9805 17.8887 58.3111 18.3542 58.7466 18.6962C59.1875 19.0328 59.7279 19.2012 60.3677 19.2012Z" fill="white"/>
<path d="M73.6309 21.5447C72.6577 21.5447 71.7867 21.3001 71.0179 20.8109C70.249 20.3217 69.6415 19.6115 69.1952 18.6804C68.749 17.7493 68.5259 16.6183 68.5259 15.2874C68.5259 13.9407 68.7517 12.8044 69.2033 11.8785C69.6603 10.9474 70.2759 10.2452 71.0501 9.77171C71.8244 9.293 72.6873 9.05365 73.6389 9.05365C74.3647 9.05365 74.9615 9.17464 75.4293 9.41662C75.897 9.65335 76.268 9.94004 76.5422 10.2767C76.8164 10.6081 77.0288 10.9211 77.1793 11.2157H77.3003V5.17139H80.2278V21.3317H77.3568V19.4221H77.1793C77.0288 19.7167 76.8111 20.0297 76.5261 20.3611C76.2411 20.6873 75.8648 20.9661 75.397 21.1975C74.9293 21.429 74.3406 21.5447 73.6309 21.5447ZM74.4454 19.2012C75.0637 19.2012 75.5906 19.0381 76.0261 18.712C76.4616 18.3805 76.7922 17.9202 77.0181 17.3311C77.2439 16.7419 77.3568 16.0554 77.3568 15.2716C77.3568 14.4878 77.2439 13.8065 77.0181 13.2279C76.7976 12.6492 76.4697 12.1994 76.0342 11.8785C75.604 11.5577 75.0745 11.3972 74.4454 11.3972C73.7948 11.3972 73.2518 11.5629 72.8163 11.8943C72.3808 12.2257 72.0529 12.6834 71.8324 13.2673C71.612 13.8512 71.5018 14.5193 71.5018 15.2716C71.5018 16.0291 71.612 16.7051 71.8324 17.2995C72.0582 17.8887 72.3889 18.3542 72.8244 18.6962C73.2653 19.0328 73.8056 19.2012 74.4454 19.2012Z" fill="white"/>
<path d="M83.1117 21.3317V9.21146H86.0311V21.3317H83.1117ZM84.5795 7.49128C84.1171 7.49128 83.7192 7.34135 83.3859 7.0415C83.0526 6.73639 82.8859 6.37078 82.8859 5.94468C82.8859 5.51332 83.0526 5.14771 83.3859 4.84786C83.7192 4.54276 84.1171 4.3902 84.5795 4.3902C85.0472 4.3902 85.4451 4.54276 85.7731 4.84786C86.1064 5.14771 86.2731 5.51332 86.2731 5.94468C86.2731 6.37078 86.1064 6.73639 85.7731 7.0415C85.4451 7.34135 85.0472 7.49128 84.5795 7.49128Z" fill="white"/>
<path d="M93.403 21.5447C92.4299 21.5447 91.5589 21.3001 90.7901 20.8109C90.0212 20.3217 89.4137 19.6115 88.9674 18.6804C88.5212 17.7493 88.2981 16.6183 88.2981 15.2874C88.2981 13.9407 88.5239 12.8044 88.9755 11.8785C89.4325 10.9474 90.0481 10.2452 90.8223 9.77171C91.5965 9.293 92.4595 9.05365 93.4111 9.05365C94.1369 9.05365 94.7337 9.17464 95.2015 9.41662C95.6692 9.65335 96.0402 9.94004 96.3144 10.2767C96.5886 10.6081 96.801 10.9211 96.9515 11.2157H97.0725V9.21146H100V21.3317H97.1289V19.4221H96.9515C96.801 19.7167 96.5832 20.0297 96.2983 20.3611C96.0133 20.6873 95.637 20.9661 95.1692 21.1975C94.7015 21.429 94.1127 21.5447 93.403 21.5447ZM94.2176 19.2012C94.8359 19.2012 95.3628 19.0381 95.7983 18.712C96.2338 18.3805 96.5644 17.9202 96.7902 17.3311C97.016 16.7419 97.1289 16.0554 97.1289 15.2716C97.1289 14.4878 97.016 13.8065 96.7902 13.2279C96.5698 12.6492 96.2418 12.1994 95.8063 11.8785C95.3762 11.5577 94.8466 11.3972 94.2176 11.3972C93.567 11.3972 93.024 11.5629 92.5885 11.8943C92.153 12.2257 91.825 12.6834 91.6046 13.2673C91.3842 13.8512 91.2739 14.5193 91.2739 15.2716C91.2739 16.0291 91.3842 16.7051 91.6046 17.2995C91.8304 17.8887 92.1611 18.3542 92.5966 18.6962C93.0374 19.0328 93.5778 19.2012 94.2176 19.2012Z" fill="white"/>
</svg>
